<svg xmlns="http://www.w3.org/2000/svg" viewBox="0 0 512 512" width="512" height="512" role="img" aria-label="Carnet2maths">
  <title>Carnet2maths — Spirale sans texte (C′a) — en-tête</title>
  <defs>
    <clipPath id="c2m-round"><rect width="512" height="512" rx="115" ry="115"/></clipPath>
    <linearGradient id="c2m-bg" x1="0" y1="0" x2="0.6" y2="1">
      <stop offset="0" stop-color="#413AC0"/>
      <stop offset="1" stop-color="#231E66"/>
    </linearGradient>
  </defs>
  <g clip-path="url(#c2m-round)">
  <rect width="512" height="512" fill="url(#c2m-bg)"/>
  <g transform="rotate(-3 256 256)">
    <path d="M142 152h228a18 18 0 0 1 18 18v176l-56 56H142a18 18 0 0 1-18-18V170a18 18 0 0 1 18-18z" fill="#FFFFFF"/>
    <path d="M388 346l-56 56h38a18 18 0 0 0 18-18z" fill="#D6DBF7"/>
    <path d="M388 346l-56 56" stroke="#BEC5EE" stroke-width="3" fill="none"/>
    <rect x="152" y="218" width="42" height="42" rx="11.5" fill="#0FA97C"/>
    <rect x="152" y="274" width="42" height="42" rx="11.5" fill="#0FA97C"/>
    <g fill="none" stroke="#FFFFFF" stroke-width="6.5" stroke-linecap="round" stroke-linejoin="round">
      <path d="M163 239l8 9 18-20"/>
      <path d="M163 295l8 9 18-20"/>
    </g>
    <rect x="155.25" y="333.25" width="35.5" height="35.5" rx="9" fill="#FFFFFF" stroke="#8C88DC" stroke-width="6.5"/>
    <rect x="216" y="230" width="128" height="18" rx="9" fill="#514AB2"/>
    <rect x="216" y="286" width="128" height="18" rx="9" fill="#514AB2"/>
    <rect x="216" y="342" width="128" height="18" rx="9" fill="#C4C0E8"/>
    <g fill="#A9B0E6">
      <rect x="143.5" y="116" width="17" height="74" rx="8.5"/>
      <rect x="195.5" y="116" width="17" height="74" rx="8.5"/>
      <rect x="247.5" y="116" width="17" height="74" rx="8.5"/>
      <rect x="299.5" y="116" width="17" height="74" rx="8.5"/>
      <rect x="351.5" y="116" width="17" height="74" rx="8.5"/>
    </g>
    <g fill="#8E96D8" opacity=".5">
      <circle cx="152" cy="178" r="6"/><circle cx="204" cy="178" r="6"/>
      <circle cx="256" cy="178" r="6"/><circle cx="308" cy="178" r="6"/>
      <circle cx="360" cy="178" r="6"/>
    </g>
  </g>
</g>
</svg>
